<svg width="147" height="60" viewBox="0 0 147 60" fill="none" xmlns="http://www.w3.org/2000/svg">
<path d="M59 30C59 46.2924 45.7924 59.5 29.5 59.5C13.2076 59.5 0 46.2924 0 30C0 13.7076 13.2076 0.5 29.5 0.5C45.7924 0.5 59 13.7076 59 30ZM21.2997 30C21.2997 34.5289 24.9711 38.2003 29.5 38.2003C34.0289 38.2003 37.7003 34.5289 37.7003 30C37.7003 25.4711 34.0289 21.7997 29.5 21.7997C24.9711 21.7997 21.2997 25.4711 21.2997 30Z" fill="#B2B2B2"/>
<path d="M103 30C103 46.2924 89.7924 59.5 73.5 59.5C57.2076 59.5 44 46.2924 44 30C44 13.7076 57.2076 0.5 73.5 0.5C89.7924 0.5 103 13.7076 103 30ZM65.2997 30C65.2997 34.5289 68.9711 38.2003 73.5 38.2003C78.0289 38.2003 81.7003 34.5289 81.7003 30C81.7003 25.4711 78.0289 21.7997 73.5 21.7997C68.9711 21.7997 65.2997 25.4711 65.2997 30Z" fill="#B2B2B2"/>
<path d="M147 30C147 46.2924 133.792 59.5 117.5 59.5C101.208 59.5 88 46.2924 88 30C88 13.7076 101.208 0.5 117.5 0.5C133.792 0.5 147 13.7076 147 30ZM109.3 30C109.3 34.5289 112.971 38.2003 117.5 38.2003C122.029 38.2003 125.7 34.5289 125.7 30C125.7 25.4711 122.029 21.7997 117.5 21.7997C112.971 21.7997 109.3 25.4711 109.3 30Z" fill="#B2B2B2"/>
</svg>
